<svg width="28" height="23" viewBox="0 0 28 23" fill="none" xmlns="http://www.w3.org/2000/svg">
<path fill-rule="evenodd" clip-rule="evenodd" d="M13.8034 2.70958H9.99398V4.61433H11.8034V2.70959H13.8034V4.61433H23.4858V6.61433H7.7546V10.533H5.7546V6.61433H5.21248L2.54374 10.6174H7.83903V12.6174H2.248V16.265H0.248004V12.6174V10.6174V10.4555L0.247986 10.4555L4.12096 4.64606V4.61433H7.99398V2.70958H7.99396V0.709579H13.8034V2.70958ZM24.8777 7.06412C24.661 6.8335 24.2596 6.61432 23.486 6.61431L23.486 4.61431C24.6489 4.61432 25.6417 4.95671 26.335 5.69434C27.0178 6.42072 27.2744 7.38676 27.2744 8.36413H27.2744V16.265H27.3588V18.265H25.4218C25.3879 20.3747 23.6671 22.0745 21.5493 22.0745C19.4209 22.0745 17.6936 20.3576 17.6765 18.2332H11.8668C11.8497 20.3576 10.1223 22.0745 7.99393 22.0745C5.87616 22.0745 4.15538 20.3747 4.12147 18.265H0.248043V16.265H4.6391C5.30875 15.1074 6.56039 14.3285 7.99393 14.3285C9.41432 14.3285 10.6561 15.0931 11.3302 16.2332H18.2131C18.8871 15.0931 20.1289 14.3285 21.5493 14.3285C22.9829 14.3285 24.2345 15.1074 24.9042 16.265H25.2744V8.36413L25.2744 8.36413C25.2744 7.71485 25.1051 7.30598 24.8777 7.06412ZM7.99393 20.0745C9.02835 20.0745 9.8669 19.2359 9.8669 18.2015C9.8669 17.1671 9.02835 16.3285 7.99393 16.3285C6.95952 16.3285 6.12096 17.1671 6.12096 18.2015C6.12096 19.2359 6.95952 20.0745 7.99393 20.0745ZM21.5493 20.0745C22.5838 20.0745 23.4223 19.2359 23.4223 18.2015C23.4223 17.1671 22.5838 16.3285 21.5493 16.3285C20.5149 16.3285 19.6764 17.1671 19.6764 18.2015C19.6764 19.2359 20.5149 20.0745 21.5493 20.0745ZM15.7399 12.392V14.3285H13.7399V12.392H11.8669V10.392H13.7399V8.51905H15.7399V10.392H17.6764V12.392H15.7399Z" fill="black"/>
</svg>
