<svg width="453" height="302" viewBox="0 0 453 302" fill="none" xmlns="http://www.w3.org/2000/svg">
<g clip-path="url(#clip0)">
<path d="M45.6245 165.207H339.425C348.761 165.207 357.772 161.473 364.348 154.897L379.123 140.122C385.78 133.546 394.711 129.811 404.047 129.811H468.668V316.045H45.6245V165.207Z" fill="#F6F6F6"/>
<path d="M427.996 302.487H-8.19971V50.5769H200.521C273.505 50.5769 339.425 94.2532 368.001 161.391L427.996 302.487Z" fill="#E2E2E2"/>
<path d="M228.935 166.912H124.21C105.862 166.912 91.0059 152.055 91.0059 133.708C91.0059 115.361 105.862 100.504 124.21 100.504H228.935C247.283 100.504 262.139 115.361 262.139 133.708C262.139 152.055 247.283 166.912 228.935 166.912Z" fill="#276EF1"/>
<path d="M236.648 191.267H116.335C70.2229 191.267 32.96 228.611 32.96 274.641V303.137H320.022V274.641C320.022 228.611 282.678 191.267 236.648 191.267Z" fill="#276EF1"/>
<path d="M134.032 124.129C134.032 123.723 134.032 123.154 134.276 120.069C134.519 116.579 135.494 113.25 136.63 110.003C138.741 104.158 142.15 98.7995 146.453 94.3344C150.999 89.6258 156.357 86.3785 162.527 84.1866C173.649 80.2086 185.421 77.692 196.705 74.5259C205.879 71.928 218.219 75.013 222.603 84.1054C224.795 88.6516 224.064 93.5226 223.414 98.3936C223.252 99.6113 223.82 100.667 224.876 101.316C227.311 102.777 231.452 105.862 230.559 109.759C230.559 109.759 231.776 115.198 222.521 118.202C222.521 118.202 220.086 118.608 222.521 126.077L192.646 112.682L163.339 111.87C163.339 111.708 134.032 124.129 134.032 124.129Z" fill="black"/>
<path d="M201.739 200.522H153.841L171.458 100.504L211.968 142.151L201.739 200.522Z" fill="#99644C"/>
<path d="M295.18 257.918C289.985 244.847 279.35 234.618 266.036 230.072L217.164 212.942C210.669 210.751 206.854 204.094 208.071 197.437L209.857 187.208C210.588 182.986 207.341 179.089 203.038 179.089H157.494C154.085 179.089 151.243 181.525 150.675 184.853L148.645 196.462C147.347 203.931 142.151 210.02 134.926 212.537L84.5922 229.991C71.2781 234.618 60.6432 244.766 55.4475 257.837L37.6685 302.487H312.878L295.18 257.918Z" fill="#102C60"/>
<path d="M234.012 204.913L176.614 289.873L194.506 301.962L251.905 217.002L234.012 204.913Z" fill="#276EF1"/>
<path d="M134.032 124.128C134.032 134.033 138.01 150.432 153.76 159.443C153.76 159.443 160.254 163.583 159.686 166.831H166.911C169.59 166.831 172.026 165.207 173.244 162.771L181.849 144.181C183.31 141.014 182.661 137.28 180.144 134.845C176.491 131.273 171.782 128.999 171.782 122.505C171.782 117.877 174.461 115.036 178.926 113.899C182.092 113.088 188.831 114.305 189.805 122.099C190.13 124.778 191.266 130.623 192.646 137.28H200.846L198.491 114.955C198.248 112.276 199.222 109.759 201.252 107.973L202.956 106.512C207.421 102.696 208.72 96.364 206.123 91.0871L201.089 80.6145L134.032 124.128Z" fill="black"/>
<path d="M229.828 129.243L218.057 118.446C216.839 117.309 216.271 115.767 216.433 114.143C216.758 111.626 217.083 107.73 216.433 104.969C215.459 100.504 209.208 91.6554 204.824 89.7882L197.761 108.541L200.927 137.767C201.658 143.937 208.559 147.347 213.917 144.181L223.009 138.741C222.766 137.524 223.253 136.062 224.552 135.494L229.179 133.302C230.803 132.409 231.046 130.38 229.828 129.243Z" fill="#99644C"/>
<path d="M229.909 154.247C229.585 153.192 229.179 152.137 228.935 151.081L223.252 139.229C223.171 138.985 223.09 138.823 223.009 138.579L213.916 144.018C208.477 147.184 201.658 143.775 200.927 137.605H192.728C194.595 146.779 196.868 157.495 198.086 163.015C198.573 165.207 200.602 166.831 202.875 166.831H220.898C227.474 166.912 231.939 160.417 229.909 154.247Z" fill="#545454"/>
<path d="M208.64 122.099L216.027 119.501L215.54 119.339C212.942 118.527 210.101 119.745 208.64 122.099Z" fill="black"/>
<path d="M203.444 118.365C206.854 116.416 210.669 115.28 214.485 114.955V114.468C214.485 113.331 213.511 112.357 212.374 112.357H212.212C211.562 112.357 210.994 112.357 210.263 112.519C207.178 113.088 204.418 115.361 203.444 118.365Z" fill="black"/>
<path d="M202.795 166.912C201.09 166.912 199.547 166.019 198.654 164.72C199.06 165.532 199.547 166.344 200.116 166.912C201.82 168.86 204.256 170.159 207.016 170.403L207.666 166.912H202.795Z" fill="#8E421F"/>
<path d="M230.559 130.948C230.559 130.704 230.478 130.461 230.396 130.217C230.315 129.974 230.153 129.73 230.072 129.487C229.909 129.243 229.747 129.081 229.503 128.918C229.422 128.837 229.422 128.837 229.341 128.756L225.688 131.922C222.522 134.601 218.787 136.468 214.809 137.037H214.728C210.75 137.686 206.691 136.631 203.525 133.952L201.82 132.572L200.602 135.981L200.034 137.605L195.325 150.919L193.945 154.897L198.167 163.665C198.167 163.665 198.086 163.502 198.167 163.665C198.897 165.532 200.683 166.831 202.794 166.831H208.558H214.809H216.108H220.005H220.736C221.466 166.831 222.522 166.831 222.522 166.831C228.529 166.587 230.478 164.07 230.396 157.982V132.084C230.559 131.841 230.559 131.191 230.559 130.948Z" fill="white"/>
<path d="M206.042 139.066L186.477 118.608C183.635 115.036 179.008 116.173 175.76 119.339L175.03 120.719C172.107 123.641 175.436 129.649 178.196 132.653L199.872 163.908" stroke="white" stroke-width="3.4244" stroke-miterlimit="10"/>
<path d="M214.891 121.287C214.891 121.206 214.81 121.125 214.81 121.044C214.647 120.638 214.323 120.313 213.998 120.232C213.754 120.151 213.592 120.069 213.348 120.069C212.455 120.069 211.644 120.8 211.644 121.774C211.644 121.855 211.644 121.937 211.644 122.018C211.644 122.261 211.806 122.505 211.887 122.748L214.241 123.235L214.323 123.154C214.566 122.83 214.891 122.261 214.891 121.855C214.891 121.531 214.891 121.368 214.891 121.287Z" fill="black"/>
<path d="M176.653 230.559C131.922 230.559 94.0092 261.246 83.2119 302.893H100.91C111.22 270.988 141.258 247.608 176.491 247.608C211.724 247.608 241.843 270.745 252.072 302.893H269.77C259.297 261.409 221.629 230.559 176.653 230.559Z" fill="white"/>
<path d="M68.9238 286.981H89.3008L99.1239 270.339C101.965 266.361 107.729 265.792 111.22 269.283L116.822 274.723C117.877 276.103 119.988 276.833 122.099 275.616C122.992 275.129 123.641 274.235 123.885 273.18C124.047 272.449 124.94 271.8 125.671 272.125C125.914 272.287 126.158 272.287 126.401 272.287C128.187 272.287 129.73 271.069 130.136 269.202C130.136 269.202 130.136 269.04 130.136 268.959C130.136 268.228 130.866 267.741 131.516 267.903C132.003 268.066 132.247 268.066 132.734 268.066C134.52 268.066 136.062 266.848 136.468 265.224C136.63 264.494 137.199 264.006 138.01 264.006H139.066C141.339 264.006 143.044 262.22 143.044 260.028C143.044 259.541 139.715 248.176 139.715 248.176C138.822 245.334 136.63 243.061 133.951 241.844L125.346 238.19C124.696 237.703 123.966 237.46 123.073 237.297C121.368 237.135 119.988 238.028 119.338 239.408C118.851 240.301 117.958 240.788 117.065 240.788H116.903C115.36 240.788 114.062 241.681 113.412 242.899C112.925 243.792 112.032 244.279 111.139 244.279C109.596 244.279 108.298 245.172 107.648 246.39C107.161 247.283 106.268 247.77 105.375 247.77H105.213C103.264 247.77 101.722 249.15 101.235 250.936L99.5298 255.32C97.5814 260.759 94.0906 265.711 89.5443 269.608L68.9238 286.981Z" fill="#99644C"/>
<path d="M394.142 302.893C343.971 302.893 293.719 300.782 243.71 295.992C184.285 290.31 126.077 276.915 66.813 269.852C44.3254 267.173 20.2953 263.601 -2.51709 265.711V309.875H393.98L394.142 302.893Z" fill="white"/>
<path d="M189.805 122.342C188.831 114.468 182.093 113.331 178.927 114.143C174.462 115.361 171.783 118.202 171.783 122.748C171.783 129.243 176.41 131.516 180.145 135.088C180.875 135.819 183.392 137.686 185.015 137.686H192.565C191.267 130.948 190.211 125.021 189.805 122.342Z" fill="#99644C"/>
<path d="M384.076 97.5817C404.073 97.5817 420.283 81.3711 420.283 61.3742C420.283 41.3773 404.073 25.1667 384.076 25.1667C364.079 25.1667 347.868 41.3773 347.868 61.3742C347.868 81.3711 364.079 97.5817 384.076 97.5817Z" fill="#F6F6F6"/>
</g>
<defs>
<clipPath id="clip0">
<rect width="453" height="302" fill="white"/>
</clipPath>
</defs>
</svg>
