<svg width="881" height="914" viewBox="0 0 881 914" fill="none" xmlns="http://www.w3.org/2000/svg">
<path fill-rule="evenodd" clip-rule="evenodd" d="M806.175 81.5673H621.17L621.203 0L481.601 0.691835V539.988H806.175V81.5673Z" fill="#A1BDCA"/>
<path d="M807.107 171.483H621.248V432.719H807.107V171.483Z" fill="#C3DAE2"/>
<path d="M779.326 194.74H746.888V285.013H779.326V194.74Z" fill="#00A7DC"/>
<path d="M728.722 194.74H696.283V285.013H728.722V194.74Z" fill="#00A7DC"/>
<path d="M672.961 194.74H640.522V285.013H672.961V194.74Z" fill="#00A7DC"/>
<path d="M779.326 320.619H746.888V410.892H779.326V320.619Z" fill="#00A7DC"/>
<path d="M728.722 320.619H696.283V410.892H728.722V320.619Z" fill="#00A7DC"/>
<path d="M672.961 320.619H640.522V410.892H672.961V320.619Z" fill="#00A7DC"/>
<path d="M598.025 26.6472H481.601V540H598.025V26.6472Z" fill="#C3DAE2"/>
<path d="M598.025 512.984H481.601V525.333H598.025V512.984Z" fill="#00A7DC"/>
<path fill-rule="evenodd" clip-rule="evenodd" d="M171.943 81.5673H356.948L356.915 0L496.517 0.691835V539.988H171.943V81.5673Z" fill="#A1BDCA"/>
<path d="M356.859 171.483H171V432.719H356.859V171.483Z" fill="#C3DAE2"/>
<path d="M231.23 194.74H198.792V285.013H231.23V194.74Z" fill="#00A7DC"/>
<path d="M281.824 194.74H249.385V285.013H281.824V194.74Z" fill="#00A7DC"/>
<path d="M337.585 194.74H305.146V285.013H337.585V194.74Z" fill="#00A7DC"/>
<path d="M231.23 320.619H198.792V410.892H231.23V320.619Z" fill="#00A7DC"/>
<path d="M281.824 320.619H249.385V410.892H281.824V320.619Z" fill="#00A7DC"/>
<path d="M337.585 320.619H305.146V410.892H337.585V320.619Z" fill="#00A7DC"/>
<path d="M496.517 26.6472H380.093V540H496.517V26.6472Z" fill="#C3DAE2"/>
<path d="M356.859 497.417H177.876V526.048H356.859V497.417Z" fill="#C3DAE2"/>
<path d="M496.517 512.984H380.093V525.333H496.517V512.984Z" fill="#00A7DC"/>
<path d="M545.635 288.426H418.287V493.128H545.635V288.426Z" fill="#00A7DC"/>
<path d="M633.757 261.225H332.239V311.326H633.757V261.225Z" fill="#CFE8F0"/>
<path fill-rule="evenodd" clip-rule="evenodd" d="M458.445 59.9244H506.354V91.7027H536.918V141.515H506.354V173.293H458.445V141.515H427.88V91.7027H458.445V59.9244Z" fill="#DF1C20"/>
<path d="M356.937 58.3793H171.943V81.5673H356.937V58.3793Z" fill="#C3DAE2" stroke="#C3DAE2" stroke-width="2.34924" stroke-miterlimit="22.9256"/>
<path d="M806.164 58.3793H621.17V81.5673H806.164V58.3793Z" fill="#C3DAE2" stroke="#C3DAE2" stroke-width="2.34924" stroke-miterlimit="22.9256"/>
<g clip-path="url(#clip0)">
<path d="M590.807 416.47C590.807 463.493 553.862 504.047 506.654 504.047C459.604 504.047 421.396 465.86 421.396 418.837C421.396 371.814 457.552 342.149 504.601 342.149C551.809 342.149 590.807 383.807 590.807 416.47Z" fill="black"/>
<path d="M749.639 446.925L756.429 434.301C759.113 429.41 763.375 425.465 768.586 423.413L787.69 415.681C842.627 410.323 859.693 411.375 881.899 415.681L749.639 446.925Z" fill="#EEEEEE"/>
<path d="M1077.88 415.681H834.74C834.74 415.681 699.274 443.769 638.804 543.811L599.175 713.284V986.27H1078.04V415.681H1077.88Z" fill="white"/>
<path d="M616.068 986.428L717.747 801.965L851.16 443.138L741.429 461.915C741.429 461.915 615.911 618.291 615.911 719.911V986.428H616.068Z" fill="#757575"/>
<path d="M768.428 681.567L762.902 664.683C762.27 662.631 760.218 661.211 758.007 661.211H753.587C747.429 661.211 742.377 656.162 742.377 650.008C742.377 649.377 742.377 648.745 742.535 648.114L740.482 644.169C739.851 642.907 740.008 641.171 741.114 640.224L741.429 639.909L739.377 638.804C738.745 638.489 738.43 637.858 738.43 637.069L738.587 630.441L733.851 627.601C732.746 626.97 732.43 625.549 733.061 624.445C733.061 624.445 733.061 624.445 733.061 624.287L742.692 610.559L740.798 606.93C740.008 605.352 740.008 603.3 740.956 601.722L750.903 584.68L749.639 583.418C746.324 579.947 744.903 575.213 745.85 570.479L746.955 565.429C747.745 561.8 750.903 559.275 754.534 559.275H795.11C800.794 559.275 806.32 561.484 810.425 565.587L825.424 580.578C832.056 587.205 835.687 596.042 835.687 605.352C835.687 615.293 831.424 624.76 824.003 631.388L817.846 636.911C813.583 640.698 811.215 646.063 811.215 651.586V672.415L768.428 681.567Z" fill="#333333"/>
<path d="M781.059 672.73H737.956C730.377 672.73 723.43 676.833 719.641 683.46L696.906 724.172L784.532 721.331L781.059 672.73Z" fill="#333333"/>
<path d="M678.749 807.646L712.063 707.13C717.747 690.088 733.535 678.569 751.534 678.727H763.691L717.747 802.123L688.064 865.557L678.749 807.646Z" fill="#545454"/>
<path d="M767.481 668.312H756.271C751.85 668.312 748.218 664.683 748.218 660.265C748.218 659.16 748.376 658.055 748.85 656.951L758.323 635.333C760.06 631.546 763.691 629.179 767.796 629.179H782.006L767.481 668.312Z" fill="#545454"/>
<path d="M741.587 461.916L783.269 500.891H829.687L851.16 443.296L741.587 461.916Z" fill="#E2E2E2"/>
<path d="M783.269 500.891L741.587 462.073C741.587 462.073 616.069 618.449 616.069 720.069V986.586L698.958 836.364C698.958 836.207 663.276 669.574 783.269 500.891Z" fill="#E2E2E2"/>
<path d="M717.747 802.123L781.532 839.836C787.532 843.307 795.11 841.414 798.742 835.575L882.737 700.187C887.631 692.297 890.947 683.303 892.368 674.151L920.471 486.531C923.787 464.756 908.788 444.4 887 441.244C883.842 440.771 880.684 440.613 877.527 440.928L851.16 443.138L717.747 802.123Z" fill="#EEEEEE"/>
<path d="M739.693 794.391L863.948 460.022L879.105 458.76C879.737 458.76 880.368 458.602 881.158 458.602C887.473 458.602 893.631 461.442 897.736 466.334C901.999 471.225 903.735 477.695 902.788 484.007L874.527 671.468C873.422 678.411 871.053 684.881 867.422 690.877L786.111 822.005L739.693 794.391Z" fill="#E2E2E2"/>
<path d="M825.109 854.669L1077.88 986.428V773.877L947.312 725.276C928.523 718.333 907.525 725.434 896.631 742.318L825.109 854.669Z" fill="#EEEEEE"/>
<path d="M652.856 453.395H220.092C209.987 453.395 200.514 458.76 195.146 467.438L48.1552 709.812C38.0505 726.539 36.3138 747.052 43.5765 765.199L88.1001 877.391C92.363 887.964 101.52 895.853 112.73 898.063L150.781 905.795C196.725 915.105 236.039 944.77 257.669 986.428H616.226V719.911L632.015 601.407C637.383 561.011 645.909 521.089 657.434 481.956L662.171 465.86C663.75 460.653 660.75 455.288 655.54 453.71C654.75 453.552 653.803 453.395 652.856 453.395ZM634.541 489.372L593.649 666.419C592.07 673.519 585.597 678.727 578.176 678.727H139.097C133.887 678.727 129.624 674.466 129.624 669.259C129.624 667.523 130.098 665.787 131.045 664.367L236.512 488.898C240.617 482.113 248.038 477.853 256.09 477.853H625.226C630.436 477.853 634.699 482.113 634.699 487.32C634.857 487.952 634.699 488.583 634.541 489.372Z" fill="#EEEEEE"/>
<path d="M625.226 477.695H255.932C247.88 477.695 240.459 481.956 236.354 488.741L131.045 664.209C128.361 668.628 129.782 674.466 134.202 677.149C135.623 678.095 137.36 678.569 139.097 678.569H578.176C585.597 678.569 591.912 673.519 593.649 666.261L634.541 489.214C635.646 484.165 632.489 478.957 627.436 477.853C626.647 477.853 626.015 477.695 625.226 477.695Z" fill="white"/>
<path d="M296.351 468.385H266.984L233.355 688.037H262.721L296.351 468.385Z" fill="#EEEEEE"/>
<path d="M104.994 719.911H557.493C573.755 719.911 587.018 733.166 587.018 749.419V986.428H352.558L240.933 917.787C182.831 881.967 137.044 829.421 109.572 767.092L95.2047 734.586C92.8364 729.221 95.3626 723.067 100.573 720.858C102.152 720.227 103.573 719.911 104.994 719.911Z" fill="#E2E2E2"/>
<path d="M608.648 759.36H94.4159V809.066H608.648V759.36Z" fill="#EEEEEE"/>
<path d="M585.597 415.681L586.86 432.881C587.649 442.665 585.439 452.29 580.702 460.969L572.492 475.802C569.334 481.64 567.598 488.109 567.598 494.737V501.206C567.598 504.362 565.071 506.887 561.914 506.887C560.966 506.887 560.177 506.729 559.388 506.256L552.599 502.784L550.388 508.938C549.283 512.094 546.599 514.461 543.441 515.25L539.652 516.197L539.178 517.775C537.915 521.878 534.126 524.56 529.705 524.56L525.758 531.188C522.127 537.342 514.075 539.393 507.917 535.764C507.601 535.606 507.285 535.448 506.97 535.133L482.813 517.775L456.289 556.435L401.66 504.362L412.712 491.265C417.922 485.111 422.027 478.169 424.711 470.594C427.396 463.336 428.816 455.762 428.974 448.03L429.448 415.681H585.597Z" fill="#8E421F"/>
<path d="M204.304 893.171L203.672 936.88L187.41 986.428H323.191L366.61 922.994L265.247 854.669L204.304 893.171Z" fill="#142328"/>
<path d="M482.813 826.108L501.602 949.977C501.602 949.977 491.023 959.761 481.234 962.917L482.024 894.512L482.813 826.108Z" fill="#0C45AE"/>
<path d="M481.866 898.378L495.918 912.738L482.813 826.108L481.866 898.378Z" fill="#053182"/>
<path d="M401.66 504.362L386.977 514.619C359.978 533.397 338.98 559.591 326.98 590.203L300.298 657.424C292.877 675.886 282.93 693.244 270.457 708.866L251.827 732.062C237.617 749.735 231.144 772.457 233.67 794.864L229.565 800.387C210.777 825.792 201.619 857.194 203.988 888.753L204.304 893.171L242.985 882.914C279.457 873.289 317.981 888.122 338.506 919.681C358.4 950.293 392.345 968.597 428.816 968.597H480.919L483.445 746.894C483.445 744.843 483.918 742.95 484.708 741.214L492.444 723.698C502.549 700.976 504.128 675.255 496.865 651.586L464.341 544.6L401.66 504.362Z" fill="#276EF1"/>
<path d="M590.649 415.682L590.807 416.47C592.859 423.256 592.386 430.672 589.386 437.142C587.807 440.455 583.86 442.033 580.386 440.613L556.862 431.145C545.652 426.569 532.863 427.832 522.758 434.144L518.18 437.142C513.285 440.14 506.97 439.982 502.391 436.668L500.339 435.09V430.199C500.339 424.36 495.602 419.626 489.76 419.626C483.919 419.626 479.182 424.36 479.182 430.199C479.182 430.672 479.182 431.145 479.34 431.619C480.287 438.088 477.287 444.4 471.919 447.872L466.551 451.343C456.604 457.655 445.552 461.916 433.869 463.494L427.08 464.44V454.815C427.08 448.503 426.133 442.349 424.238 436.353L423.922 435.564C422.501 430.988 421.87 426.254 421.87 421.362V415.682H506.259H590.649Z" fill="black"/>
<path d="M401.66 504.362L418.712 477.695L437.658 497.262C455.025 515.092 466.235 537.973 469.867 562.589L401.66 504.362Z" fill="#FFF2D9"/>
<path d="M387.766 786.501L481.866 898.378L482.655 828.633L387.766 786.501Z" fill="#0C45AE"/>
<path d="M575.966 457.655C576.913 456.077 576.281 454.026 574.702 453.079L571.703 451.185C566.177 447.872 559.703 446.767 553.388 447.872L546.599 449.134C546.283 449.134 546.125 449.292 546.125 449.607C546.125 449.923 546.283 450.081 546.599 450.081L555.125 451.185C559.388 451.817 563.493 453.395 566.966 455.919L570.913 458.602C572.492 459.706 574.545 459.391 575.808 457.813C575.808 457.813 575.808 457.655 575.966 457.655Z" fill="black"/>
<path d="M561.829 473.063C563.415 471.325 563.709 469.011 562.485 467.895C561.262 466.779 558.983 467.283 557.397 469.021C555.81 470.76 555.515 473.074 556.738 474.189C557.962 475.306 560.242 474.801 561.829 473.063Z" fill="black"/>
<path d="M565.545 471.699L566.492 470.91L564.914 468.701C561.598 463.809 555.598 461.442 549.757 462.704L543.441 464.125L551.178 464.598C555.598 464.914 559.703 467.281 562.23 470.91L562.388 471.225C563.019 472.172 564.44 472.488 565.387 471.857C565.387 471.857 565.545 471.857 565.545 471.699Z" fill="black"/>
<path d="M566.492 470.91L569.65 468.385L565.229 469.963L566.492 470.91Z" fill="black"/>
<path d="M500.181 435.406L523.548 475.644L526.548 468.385L500.181 435.406Z" fill="#5F2C14"/>
<path d="M477.603 439.824L475.393 528.663L482.655 517.775L477.603 439.824Z" fill="#5F2C14"/>
<path d="M568.861 499.155L529.863 464.44L525.442 469.49L519.758 480.062C513.601 491.581 504.444 501.364 493.234 508.307L488.339 511.305L482.813 517.459L517.706 543.811L569.019 513.672L568.861 499.155Z" fill="#CCDFE5"/>
<path d="M529.863 464.598L500.181 430.356V435.406L525.284 469.805L529.863 464.598Z" fill="#142328"/>
<path d="M482.655 517.775L488.181 511.463L481.866 445.82L477.603 439.824L482.655 517.775Z" fill="#142328"/>
<path d="M500.181 436.353V431.461C500.181 424.834 494.813 419.626 488.339 419.626C481.708 419.626 476.498 424.991 476.498 431.461C476.498 431.934 476.498 432.408 476.656 432.881L478.866 451.501C479.34 455.919 483.129 459.233 487.55 459.233C492.918 459.233 497.339 454.815 497.339 449.45C497.339 449.292 497.339 449.134 497.339 448.976L495.444 443.296C494.655 441.087 495.602 438.562 497.812 437.457L500.181 436.353Z" fill="#993F21"/>
<path d="M496.233 446.294L495.286 443.454C494.497 441.244 495.444 438.72 497.654 437.615L500.181 436.353H498.76C497.339 436.353 496.076 435.248 495.918 433.828L495.76 432.881C495.286 429.094 491.971 426.254 488.023 426.727C484.234 427.201 481.392 430.514 481.708 434.459L482.497 442.822C482.971 447.556 487.234 451.186 491.971 450.712C492.76 450.712 493.392 450.554 494.181 450.239C495.76 449.765 496.707 448.03 496.076 446.294C496.234 446.294 496.233 446.294 496.233 446.294Z" fill="#5F2C14"/>
<path d="M488.971 456.866C490.104 456.866 491.023 455.948 491.023 454.815C491.023 453.682 490.104 452.763 488.971 452.763C487.837 452.763 486.918 453.682 486.918 454.815C486.918 455.948 487.837 456.866 488.971 456.866Z" fill="#F6F6F6"/>
<path d="M470.182 610.085C472.274 610.085 473.972 608.391 473.972 606.298C473.972 604.208 472.274 602.511 470.182 602.511C468.089 602.511 466.393 604.208 466.393 606.298C466.393 608.391 468.089 610.085 470.182 610.085Z" fill="#8EA3AD"/>
<path d="M455.815 543.654C457.909 543.654 459.604 541.959 459.604 539.866C459.604 537.776 457.909 536.079 455.815 536.079C453.723 536.079 452.026 537.776 452.026 539.866C452.026 541.959 453.723 543.654 455.815 543.654Z" fill="#8EA3AD"/>
<path d="M477.761 735.218C479.855 735.218 481.55 733.523 481.55 731.43C481.55 729.34 479.855 727.643 477.761 727.643C475.669 727.643 473.972 729.34 473.972 731.43C473.972 733.523 475.669 735.218 477.761 735.218Z" fill="#8EA3AD"/>
<path d="M616.068 568.112L573.282 652.059L524.021 678.569H578.176C585.597 678.569 591.912 673.519 593.649 666.261L616.068 568.112Z" fill="white"/>
<path d="M418.87 807.646L397.082 794.864C389.977 790.762 384.766 783.976 382.714 775.929L351.295 653.953C344.821 628.705 342.453 602.354 344.348 576.317L345.295 563.22C347.19 537.026 369.136 516.67 395.503 516.67C422.343 516.67 444.447 537.657 445.868 564.325L455.025 738.058L418.87 807.646Z" fill="#CCDFE5"/>
<path d="M551.02 848.83L440.974 816.798L453.605 747.526L563.019 819.165L551.02 848.83Z" fill="#8E421F"/>
<path d="M637.383 839.205C635.015 837.942 633.594 835.576 633.594 832.893V829.895L643.856 825.161H653.803C657.908 825.161 661.697 823.267 664.066 820.112L668.486 814.431C669.434 813.169 669.276 811.275 668.013 810.328C667.539 810.013 666.907 809.697 666.276 809.697L627.12 808.119C622.7 807.961 618.279 808.277 614.016 809.224L568.861 818.218L535.389 796.284L518.811 843.623L551.02 849.146L553.862 854.038C557.651 860.665 563.335 866.03 570.124 869.502L615.753 892.698C619.7 894.749 624.436 893.644 627.278 890.331L629.804 887.175L633.436 888.437C637.225 889.857 641.488 888.437 643.54 885.123L645.277 882.441L654.435 884.177C659.013 884.966 663.592 883.23 666.434 879.6L669.118 876.129L676.065 879.758L688.064 865.714L637.383 839.205Z" fill="#545454"/>
<path d="M485.182 768.67L452.657 821.058C449.973 825.319 444.447 826.739 440.184 824.214L413.344 809.066C410.975 807.646 410.028 804.648 411.449 802.123C411.449 801.965 411.607 801.965 411.607 801.807L455.025 738.216L483.603 760.465C486.287 762.516 486.918 765.988 485.182 768.67Z" fill="#FFF2D9"/>
<path d="M485.497 768.355L463.235 823.268L453.131 820.269L485.497 768.355Z" fill="#5F2C14"/>
<path d="M533.968 800.071L519.916 839.836L514.232 838.1L533.968 800.071Z" fill="#5F2C14"/>
<path d="M629.804 886.859L625.226 884.177L627.91 889.226L629.804 886.859Z" fill="black"/>
<path d="M645.119 882.125L640.856 880.547L643.383 884.808L645.119 882.125Z" fill="black"/>
<path d="M669.118 875.813L663.118 872.342L666.434 879.285L669.118 875.813Z" fill="black"/>
<path d="M643.856 825.161L628.857 826.108C627.12 826.266 625.857 827.686 626.015 829.264C626.015 829.579 626.015 829.737 626.173 830.053C627.436 834.471 630.752 837.943 635.015 839.363L643.225 842.203L636.436 837.153C635.488 836.365 634.699 835.26 634.383 834.155C633.909 831.788 635.173 829.264 637.383 828.317L643.856 825.161Z" fill="black"/>
<path d="M717.747 802.123C717.747 802.123 638.015 926.466 616.069 986.428H643.541L717.747 802.123Z" fill="white"/>
<path fill-rule="evenodd" clip-rule="evenodd" d="M477.762 658.253L469.898 659.499L471.455 669.329L461.624 670.886L462.87 678.749L472.7 677.193L474.257 687.022L482.122 685.777L480.565 675.947L490.395 674.39L489.15 666.526L479.319 668.083L477.762 658.253Z" fill="#E11900"/>
</g>
<defs>
<clipPath id="clip0">
<rect width="881" height="587" fill="white" transform="translate(0 327)"/>
</clipPath>
</defs>
</svg>
