<svg width="90" height="66" viewBox="0 0 90 66" fill="none" xmlns="http://www.w3.org/2000/svg">
<path d="M0 50.7212C0 48.6225 0.391764 46.6496 1.17529 44.8028C1.95882 42.9559 3.03617 41.3468 4.40735 39.9757C5.8065 38.6045 7.45751 37.5271 9.36036 36.7436C11.2912 35.9321 13.3899 35.5263 15.6566 35.5263C18.315 35.5263 20.7215 36.114 22.8762 37.2893C25.0309 38.4366 26.8358 39.9617 28.291 41.8645L23.8836 45.0966C22.9322 43.7534 21.7289 42.69 20.2738 41.9065C18.8467 41.095 17.3356 40.6892 15.7405 40.6892C14.3414 40.6892 13.0262 40.9411 11.7949 41.4448C10.5916 41.9205 9.54225 42.6061 8.64679 43.5015C7.75133 44.369 7.03776 45.4184 6.50608 46.6496C6.00239 47.8809 5.75054 49.2381 5.75054 50.7212C5.75054 52.2323 6.01638 53.6174 6.54806 54.8767C7.07974 56.1079 7.79331 57.1713 8.68877 58.0668C9.58423 58.9342 10.6336 59.6058 11.8369 60.0815C13.0681 60.5573 14.3693 60.7951 15.7405 60.7951C17.4475 60.7951 19.0285 60.4173 20.4837 59.6618C21.9388 58.8783 23.1141 57.8009 24.0095 56.4298L28.4169 59.6618C27.0177 61.5647 25.2408 63.1037 23.0861 64.279C20.9314 65.4263 18.4969 66 15.7825 66C13.4599 66 11.3332 65.6082 9.40234 64.8247C7.4715 64.0412 5.8065 62.9638 4.40735 61.5926C3.03617 60.2215 1.95882 58.6124 1.17529 56.7655C0.391764 54.8907 0 52.8759 0 50.7212Z" fill="#00A7DC"/>
<path d="M30.1975 59.368C30.1975 57.4092 30.8272 55.8841 32.0864 54.7927C33.3456 53.7014 35.1366 53.0718 37.4592 52.9039L43.8393 52.4422V51.6027C43.8393 50.5393 43.4895 49.6998 42.79 49.0842C42.1184 48.4685 41.1389 48.1607 39.8517 48.1607C37.9209 48.1607 36.004 48.8043 34.1012 50.0916L31.7926 46.1879C33.0518 45.2645 34.395 44.5509 35.8221 44.0472C37.2773 43.5435 38.8443 43.2917 40.5233 43.2917C41.8105 43.2917 42.9858 43.4736 44.0492 43.8373C45.1126 44.2011 46.022 44.7188 46.7775 45.3904C47.5331 46.062 48.1207 46.8735 48.5405 47.8249C48.9602 48.7484 49.1701 49.7838 49.1701 50.9311V59.4519C49.1701 60.2914 49.5759 60.7112 50.3874 60.7112H51.5207V65.4543H48.9602C47.8969 65.4543 46.9874 65.2305 46.2319 64.7827C45.4763 64.335 44.9027 63.7054 44.5109 62.8939C43.7554 63.8733 42.79 64.6428 41.6147 65.2025C40.4674 65.7341 39.1661 66 37.711 66C36.6197 66 35.6123 65.8321 34.6888 65.4963C33.7934 65.1605 33.0098 64.6988 32.3382 64.1111C31.6666 63.5235 31.135 62.8239 30.7432 62.0124C30.3794 61.2009 30.1975 60.3194 30.1975 59.368ZM35.4444 59.326C35.4444 60.0816 35.7662 60.6832 36.4098 61.1309C37.0534 61.5787 37.8929 61.8025 38.9283 61.8025C39.5999 61.8025 40.2295 61.7046 40.8171 61.5087C41.4328 61.2848 41.9644 61.005 42.4122 60.6692C42.8599 60.3054 43.2097 59.8857 43.4615 59.41C43.7134 58.9342 43.8393 58.4166 43.8393 57.8569V56.4717L38.2147 56.9754C36.3678 57.1433 35.4444 57.9268 35.4444 59.326Z" fill="#00A7DC"/>
<path d="M64.1518 48.5805C62.8366 48.5805 61.7313 49.0282 60.8358 49.9237C59.9683 50.8191 59.5346 52.1064 59.5346 53.7853V65.4543H54.0359V43.7534H59.4926V46.104C60.0523 45.2925 60.7519 44.6628 61.5913 44.2151C62.4588 43.7674 63.4802 43.5435 64.6555 43.5435H66.1246V48.5805H64.1518Z" fill="#00A7DC"/>
<path d="M67.2173 54.5829C67.2173 53.0718 67.4971 51.6306 68.0568 50.2595C68.6444 48.8883 69.4419 47.685 70.4493 46.6496C71.4567 45.6143 72.646 44.7888 74.0172 44.1731C75.3884 43.5575 76.8715 43.2497 78.4665 43.2497C80.0895 43.2497 81.5726 43.5435 82.9158 44.1312C84.287 44.6908 85.4623 45.4883 86.4417 46.5237C87.4491 47.5311 88.2186 48.7484 88.7503 50.1755C89.31 51.6027 89.5898 53.1557 89.5898 54.8347V56.4298H72.8419C73.2057 57.8569 73.9332 59.0322 75.0246 59.9556C76.1159 60.8511 77.4171 61.2988 78.9282 61.2988C80.1035 61.2988 81.1389 61.0889 82.0343 60.6692C82.9578 60.2215 83.8253 59.4799 84.6368 58.4445L88.4565 61.2988C87.3651 62.8099 86.0079 63.9712 84.3849 64.7827C82.7899 65.5942 80.985 66 78.9702 66C77.3192 66 75.7661 65.7202 74.311 65.1605C72.8839 64.5728 71.6386 63.7753 70.5752 62.7679C69.5399 61.7605 68.7144 60.5573 68.0987 59.1581C67.5111 57.7589 67.2173 56.2339 67.2173 54.5829ZM78.3406 47.9509C77.0533 47.9509 75.92 48.3286 74.9406 49.0842C73.9892 49.8397 73.3176 50.8891 72.9258 52.2323H84.0491C83.6574 50.8891 82.9438 49.8397 81.9084 49.0842C80.873 48.3286 79.6838 47.9509 78.3406 47.9509Z" fill="#00A7DC"/>
<path d="M5.19995 18.1331C5.19995 19.3084 5.38184 20.3857 5.74562 21.3651C6.1094 22.3166 6.6131 23.1421 7.25671 23.8416C7.90032 24.5132 8.65587 25.0309 9.52334 25.3947C10.4188 25.7585 11.3842 25.9404 12.4196 25.9404C13.427 25.9404 14.3644 25.7585 15.2319 25.3947C16.1274 25.0029 16.8969 24.4713 17.5405 23.7997C18.2121 23.1001 18.7298 22.2746 19.0936 21.3232C19.4574 20.3717 19.6393 19.3084 19.6393 18.1331V0H24.0466V29.3823H19.6812V26.654C18.7018 27.6893 17.5405 28.4868 16.1973 29.0465C14.8821 29.6062 13.455 29.886 11.9159 29.886C10.3488 29.886 8.87973 29.6202 7.50856 29.0885C6.16537 28.5288 4.99008 27.7453 3.98268 26.7379C3.00327 25.7305 2.21974 24.5272 1.6321 23.1281C1.07243 21.7009 0.792603 20.1199 0.792603 18.3849V0H5.19995V18.1331Z" fill="black"/>
<path d="M28.3795 0H32.619V10.7036C33.5984 9.72415 34.7317 8.95461 36.0189 8.39495C37.3061 7.8073 38.7053 7.51348 40.2164 7.51348C41.7834 7.51348 43.2525 7.8073 44.6237 8.39495C45.9949 8.98259 47.1842 9.78011 48.1916 10.7875C49.199 11.7949 49.9965 12.9842 50.5841 14.3554C51.1718 15.7265 51.4656 17.1817 51.4656 18.7207C51.4656 20.2598 51.1718 21.7149 50.5841 23.0861C49.9965 24.4293 49.199 25.6046 48.1916 26.612C47.1842 27.6194 45.9949 28.4169 44.6237 29.0045C43.2525 29.5922 41.7834 29.886 40.2164 29.886C38.7053 29.886 37.2921 29.6062 35.9769 29.0465C34.6897 28.4589 33.5564 27.6753 32.577 26.6959V29.3823H28.3795V0ZM32.535 18.7207C32.535 19.7561 32.7169 20.7215 33.0807 21.617C33.4724 22.5124 34.0041 23.296 34.6757 23.9676C35.3473 24.6392 36.1308 25.1708 37.0263 25.5626C37.9218 25.9544 38.8872 26.1503 39.9226 26.1503C40.9299 26.1503 41.8814 25.9544 42.7768 25.5626C43.6723 25.1708 44.4418 24.6392 45.0854 23.9676C45.757 23.296 46.2887 22.5124 46.6805 21.617C47.0722 20.7215 47.2681 19.7561 47.2681 18.7207C47.2681 17.6854 47.0722 16.7199 46.6805 15.8245C46.2887 14.901 45.757 14.1035 45.0854 13.4319C44.4418 12.7603 43.6723 12.2426 42.7768 11.8788C41.8814 11.4871 40.9299 11.2912 39.9226 11.2912C38.9152 11.2912 37.9637 11.4871 37.0683 11.8788C36.1728 12.2426 35.3893 12.7603 34.7177 13.4319C34.0461 14.1035 33.5144 14.901 33.1226 15.8245C32.7309 16.7199 32.535 17.6854 32.535 18.7207Z" fill="black"/>
<path d="M53.9801 18.6788C53.9801 17.1677 54.26 15.7405 54.8196 14.3973C55.3793 13.0541 56.1488 11.8788 57.1283 10.8715C58.1077 9.83608 59.269 9.02457 60.6122 8.43692C61.9553 7.84927 63.4105 7.55545 64.9775 7.55545C66.5166 7.55545 67.9437 7.83528 69.2589 8.39495C70.5742 8.95461 71.7075 9.73814 72.6589 10.7455C73.6103 11.7249 74.3519 12.9002 74.8836 14.2714C75.4152 15.6146 75.6811 17.0837 75.6811 18.6788V20.0639H58.2616C58.4015 20.9314 58.6813 21.7429 59.1011 22.4985C59.5208 23.226 60.0385 23.8696 60.6541 24.4293C61.2977 24.961 62.0113 25.3807 62.7948 25.6885C63.6063 25.9963 64.4598 26.1503 65.3553 26.1503C67.9018 26.1503 69.9585 25.1009 71.5256 23.0021L74.5897 25.2688C73.5264 26.6959 72.2112 27.8153 70.6441 28.6268C69.0771 29.4383 67.3141 29.844 65.3553 29.844C63.7603 29.844 62.2632 29.5642 60.864 29.0045C59.4928 28.4449 58.2896 27.6613 57.2542 26.654C56.2468 25.6466 55.4493 24.4713 54.8616 23.1281C54.274 21.7569 53.9801 20.2738 53.9801 18.6788ZM64.8936 11.2492C63.2985 11.2492 61.8994 11.7529 60.6961 12.7603C59.5208 13.7397 58.7373 15.0549 58.3455 16.7059H71.3997C71.0359 15.0549 70.2523 13.7397 69.0491 12.7603C67.8738 11.7529 66.4886 11.2492 64.8936 11.2492Z" fill="black"/>
<path d="M88.0279 11.7529C86.6287 11.7529 85.4814 12.2426 84.586 13.222C83.6905 14.2014 83.2428 15.5306 83.2428 17.2096V29.3823H79.0033V7.9752H83.2008V10.6196C83.7325 9.75213 84.418 9.06654 85.2575 8.56284C86.125 8.05915 87.1464 7.8073 88.3217 7.8073H89.7908V11.7529H88.0279Z" fill="black"/>
</svg>
